<svg width="141" height="20" viewBox="0 0 141 20" fill="none" xmlns="http://www.w3.org/2000/svg">
<g clip-path="url(#clip0_1_555)">
<path fill-rule="evenodd" clip-rule="evenodd" d="M0 19.9583H19.9165V0.0417337H0V19.9583ZM17.8796 17.9213V2.07865H2.03692V17.9213H17.8796Z" fill="white"/>
<path d="M40.5505 11.7533H38.4052C38.0935 13.6968 36.7917 14.8152 34.9949 14.8152C32.6113 14.8152 31.0528 12.9634 31.0528 10.0114C31.0528 7.09615 32.5563 5.20763 34.8666 5.20763C36.7367 5.20763 37.9652 6.30775 38.3135 8.28793H40.4586C40.037 5.39098 37.7086 3.50246 34.7933 3.50246C31.2911 3.50246 28.8708 6.39941 28.8708 10.0114C28.8708 13.7335 31.3461 16.5204 34.8483 16.5204C37.7636 16.5204 40.1103 14.6502 40.5505 11.7533Z" fill="white"/>
<path fill-rule="evenodd" clip-rule="evenodd" d="M50.394 11.7533C50.394 9.27803 48.6887 6.98613 45.9017 6.98613C43.115 6.98613 41.4096 9.27803 41.4096 11.7533C41.4096 14.2285 43.115 16.5204 45.9017 16.5204C48.6887 16.5204 50.394 14.2285 50.394 11.7533ZM43.5183 11.7533C43.5183 9.79142 44.3799 8.47129 45.9017 8.47129C47.4421 8.47129 48.3037 9.79142 48.3037 11.7533C48.3037 13.6968 47.4421 15.0353 45.9017 15.0353C44.3799 15.0353 43.5183 13.6968 43.5183 11.7533Z" fill="white"/>
<path fill-rule="evenodd" clip-rule="evenodd" d="M58.1929 14.4119H58.1379C57.698 15.677 56.6345 16.5204 55.241 16.5204C52.7473 16.5204 51.3905 14.3202 51.3905 11.7533C51.3905 9.18634 52.8023 6.98613 55.241 6.98613C56.6345 6.98613 57.698 7.81122 58.1379 9.07635H58.1929V3.6858H60.1547V16.3371H58.1929V14.4119ZM55.8826 8.47129C54.3608 8.47129 53.4992 9.79142 53.4992 11.7533C53.4992 13.6968 54.3608 15.0353 55.8826 15.0353C57.423 15.0353 58.2663 13.6968 58.2663 11.7533C58.2663 9.79142 57.423 8.47129 55.8826 8.47129Z" fill="white"/>
<path fill-rule="evenodd" clip-rule="evenodd" d="M70.0184 13.4951H68.0199C67.8 14.2285 67.2864 15.0353 66.0946 15.0353C64.7011 15.0353 63.7295 14.0635 63.6379 12.395H70.1834C70.4584 9.2047 68.6616 6.98613 65.9296 6.98613C63.1977 6.98613 61.6392 9.22303 61.6392 11.7533C61.6392 14.2835 63.2343 16.5204 65.9663 16.5204C68.2033 16.5204 69.6334 15.3103 70.0184 13.4951ZM65.9296 8.47129C67.2681 8.47129 68.0566 9.42471 68.1849 10.9098H63.6562C63.7845 9.42471 64.5911 8.47129 65.9296 8.47129Z" fill="white"/>
<path d="M77.9198 9.05802C80.3035 9.60805 81.4953 10.8548 81.4953 12.8534C81.4953 14.9619 79.4416 16.5204 76.508 16.5204C73.1527 16.5204 71.3376 14.1735 71.1357 11.8816H73.2811C73.4094 13.5318 74.7479 14.8152 76.5263 14.8152C78.1398 14.8152 79.3316 14.1185 79.3316 12.945C79.3316 11.9183 78.5617 11.3682 76.9296 10.9832L75.0962 10.5615C72.6209 9.97477 71.3926 8.81965 71.3926 7.05948C71.3926 4.9326 73.4827 3.50246 76.0314 3.50246C79.2583 3.50246 80.9084 5.26263 81.1284 7.44451H78.9833C78.8183 5.94103 77.5532 5.20763 76.068 5.20763C74.6196 5.20763 73.5744 5.83102 73.5744 6.9128C73.5744 7.77455 74.2162 8.17791 76.0864 8.61795L77.9198 9.05802Z" fill="white"/>
<path fill-rule="evenodd" clip-rule="evenodd" d="M89.2075 14.4119H89.2625V16.3371H91.2243V7.1695H89.2625V9.07635H89.2075C88.7673 7.81122 87.7038 6.98613 86.3103 6.98613C83.8719 6.98613 82.4601 9.18634 82.4601 11.7533C82.4601 14.3202 83.8169 16.5204 86.3103 16.5204C87.7038 16.5204 88.7673 15.677 89.2075 14.4119ZM84.5686 11.7533C84.5686 9.79142 85.4487 8.47129 86.9339 8.47129C88.419 8.47129 89.3358 9.79142 89.3358 11.7533C89.3358 13.6968 88.419 15.0353 86.9339 15.0353C85.4671 15.0353 84.5686 13.6968 84.5686 11.7533Z" fill="white"/>
<path d="M95.2207 10.8365V16.3371H93.222V7.1695H95.1655V8.96633H95.2022C95.5874 7.68287 96.5406 6.98613 97.8791 6.98613C99.8961 6.98613 100.886 8.36128 100.886 10.3781V16.3371H98.8876V10.9649C98.8876 9.25969 98.2827 8.48962 97.0542 8.48962C95.8257 8.48962 95.2207 9.33302 95.2207 10.8365Z" fill="white"/>
<path fill-rule="evenodd" clip-rule="evenodd" d="M109.061 14.4119H109.116V16.3371H111.078V3.6858H109.116V9.07635H109.061C108.621 7.81122 107.557 6.98613 106.164 6.98613C103.725 6.98613 102.313 9.18634 102.313 11.7533C102.313 14.3202 103.67 16.5204 106.164 16.5204C107.557 16.5204 108.621 15.677 109.061 14.4119ZM104.422 11.7533C104.422 9.79142 105.284 8.47129 106.806 8.47129C108.346 8.47129 109.189 9.79142 109.189 11.7533C109.189 13.6968 108.346 15.0353 106.806 15.0353C105.284 15.0353 104.422 13.6968 104.422 11.7533Z" fill="white"/>
<path fill-rule="evenodd" clip-rule="evenodd" d="M117.989 6.98613C120.428 6.98613 121.84 9.18634 121.84 11.7533C121.84 14.3202 120.483 16.5204 117.989 16.5204C116.596 16.5204 115.532 15.677 115.092 14.4119H115.037V16.3371H113.076V3.6858H115.037V9.07635H115.092C115.532 7.81122 116.596 6.98613 117.989 6.98613ZM117.348 8.47129C115.808 8.47129 114.964 9.79142 114.964 11.7533C114.964 13.6968 115.808 15.0353 117.348 15.0353C118.87 15.0353 119.731 13.6968 119.731 11.7533C119.731 9.79142 118.87 8.47129 117.348 8.47129Z" fill="white"/>
<path fill-rule="evenodd" clip-rule="evenodd" d="M131.831 11.7533C131.831 9.27803 130.126 6.98613 127.339 6.98613C124.552 6.98613 122.847 9.27803 122.847 11.7533C122.847 14.2285 124.552 16.5204 127.339 16.5204C130.126 16.5204 131.831 14.2285 131.831 11.7533ZM124.956 11.7533C124.956 9.79142 125.817 8.47129 127.339 8.47129C128.879 8.47129 129.741 9.79142 129.741 11.7533C129.741 13.6968 128.879 15.0353 127.339 15.0353C125.817 15.0353 124.956 13.6968 124.956 11.7533Z" fill="white"/>
<path d="M136.306 12.78L133.867 16.3371H131.612L135.132 11.4049L132.07 7.1695H134.325L136.306 10.0298L138.286 7.1695H140.523L137.479 11.3866L140.981 16.3371H138.744L136.306 12.78Z" fill="white"/>
</g>
<defs>
<clipPath id="clip0_1_555">
<rect width="141" height="20" fill="white"/>
</clipPath>
</defs>
</svg>
